HIERARCHY
ROOT Hips
{
    OFFSET   0.000000   0.000000   0.000000
    CHANNELS 6 Xposition Yposition Zposition Zrotation Xrotation Yrotation
    JOINT Chest
    {
        OFFSET   0.000000   8.007230   0.000000
        CHANNELS 3 Zrotation Xrotation Yrotation
        JOINT Chest2
        {
            OFFSET   0.000000  22.077100   0.000000
            CHANNELS 3 Zrotation Xrotation Yrotation
            JOINT Neck
            {
                OFFSET   0.000000  23.254800  -0.000021
                CHANNELS 3 Zrotation Xrotation Yrotation
                JOINT Head
                {
                    OFFSET   0.000000  14.370000   1.956610
                    CHANNELS 3 Zrotation Xrotation Yrotation
                    End Site
                    {
                        OFFSET   0.000000  19.566000   0.000000
                    }
                }
            }
            JOINT LeftCollar
            {
                OFFSET   3.911900  19.017000  -0.467063
                CHANNELS 3 Zrotation Xrotation Yrotation
                JOINT LeftShoulder
                {
                    OFFSET  10.383700   0.000000   0.000000
                    CHANNELS 3 Zrotation Xrotation Yrotation
                    JOINT LeftElbow
                    {
                        OFFSET  26.662100   0.001529   0.000325
                        CHANNELS 3 Zrotation Xrotation Yrotation
                        JOINT LeftWrist
                        {
                            OFFSET  28.869000  -0.000011  -0.000096
                            CHANNELS 3 Zrotation Xrotation Yrotation
                            JOINT LeftFinger0
                            {
                                OFFSET   2.044650  -2.323460   3.252850
                                CHANNELS 3 Zrotation Xrotation Yrotation
                                JOINT LeftFinger01
                                {
                                    OFFSET   3.088130   0.000000   0.000000
                                    CHANNELS 3 Zrotation Xrotation Yrotation
                                    JOINT LeftFinger02
                                    {
                                        OFFSET   2.639460   0.000000   0.000000
                                        CHANNELS 3 Zrotation Xrotation Yrotation
                                        End Site
                                        {
                                            OFFSET   2.582190   0.000000   0.000000
                                        }
                                    }
                                }
                            }
                            JOINT LeftFinger1
                            {
                                OFFSET   8.364480   0.000000   3.252850
                                CHANNELS 3 Zrotation Xrotation Yrotation
                                JOINT LeftFinger11
                                {
                                    OFFSET   4.646930   0.000000   0.000000
                                    CHANNELS 3 Zrotation Xrotation Yrotation
                                    JOINT LeftFinger12
                                    {
                                        OFFSET   2.323460   0.000000   0.000000
                                        CHANNELS 3 Zrotation Xrotation Yrotation
                                        End Site
                                        {
                                            OFFSET   2.273050   0.000000   0.000000
                                        }
                                    }
                                }
                            }
                            JOINT LeftFinger2
                            {
                                OFFSET   8.364480   0.000016   1.078090
                                CHANNELS 3 Zrotation Xrotation Yrotation
                                JOINT LeftFinger21
                                {
                                    OFFSET   5.111620   0.000000   0.000000
                                    CHANNELS 3 Zrotation Xrotation Yrotation
                                    JOINT LeftFinger22
                                    {
                                        OFFSET   2.788160   0.000017   0.000000
                                        CHANNELS 3 Zrotation Xrotation Yrotation
                                        End Site
                                        {
                                            OFFSET   2.727660   0.000000   0.000000
                                        }
                                    }
                                }
                            }
                            JOINT LeftFinger3
                            {
                                OFFSET   7.899780   0.000015  -1.078090
                                CHANNELS 3 Zrotation Xrotation Yrotation
                                JOINT LeftFinger31
                                {
                                    OFFSET   4.646920   0.000000   0.000000
                                    CHANNELS 3 Zrotation Xrotation Yrotation
                                    JOINT LeftFinger32
                                    {
                                        OFFSET   2.323470   0.000000   0.000000
                                        CHANNELS 3 Zrotation Xrotation Yrotation
                                        End Site
                                        {
                                            OFFSET   2.273050   0.000000   0.000000
                                        }
                                    }
                                }
                            }
                            JOINT LeftFinger4
                            {
                                OFFSET   7.435090   0.000000  -3.252850
                                CHANNELS 3 Zrotation Xrotation Yrotation
                                JOINT LeftFinger41
                                {
                                    OFFSET   3.717550   0.000000   0.000000
                                    CHANNELS 3 Zrotation Xrotation Yrotation
                                    JOINT LeftFinger42
                                    {
                                        OFFSET   1.858760   0.000000   0.000000
                                        CHANNELS 3 Zrotation Xrotation Yrotation
                                        End Site
                                        {
                                            OFFSET   1.818440   0.000000   0.000000
                                        }
                                    }
                                }
                            }
                        }
                    }
                }
            }
            JOINT RightCollar
            {
                OFFSET  -3.911900  19.017000  -0.467062
                CHANNELS 3 Zrotation Xrotation Yrotation
                JOINT RightShoulder
                {
                    OFFSET -10.383700   0.000015   0.000000
                    CHANNELS 3 Zrotation Xrotation Yrotation
                    JOINT RightElbow
                    {
                        OFFSET -26.662100   0.001341   0.000385
                        CHANNELS 3 Zrotation Xrotation Yrotation
                        JOINT RightWrist
                        {
                            OFFSET -28.869000   0.000025  -0.000080
                            CHANNELS 3 Zrotation Xrotation Yrotation
                            JOINT RightFinger0
                            {
                                OFFSET  -2.044650  -2.323490   3.252850
                                CHANNELS 3 Zrotation Xrotation Yrotation
                                JOINT RightFinger01
                                {
                                    OFFSET  -3.088130   0.000000   0.000000
                                    CHANNELS 3 Zrotation Xrotation Yrotation
                                    JOINT RightFinger02
                                    {
                                        OFFSET  -2.639460   0.000000   0.000000
                                        CHANNELS 3 Zrotation Xrotation Yrotation
                                        End Site
                                        {
                                            OFFSET  -2.582190   0.000000   0.000000
                                        }
                                    }
                                }
                            }
                            JOINT RightFinger1
                            {
                                OFFSET  -8.364480   0.000000   3.252850
                                CHANNELS 3 Zrotation Xrotation Yrotation
                                JOINT RightFinger11
                                {
                                    OFFSET  -4.646930   0.000000   0.000000
                                    CHANNELS 3 Zrotation Xrotation Yrotation
                                    JOINT RightFinger12
                                    {
                                        OFFSET  -2.323470   0.000000   0.000000
                                        CHANNELS 3 Zrotation Xrotation Yrotation
                                        End Site
                                        {
                                            OFFSET  -2.273050   0.000000   0.000000
                                        }
                                    }
                                }
                            }
                            JOINT RightFinger2
                            {
                                OFFSET  -8.364480   0.000000   1.078090
                                CHANNELS 3 Zrotation Xrotation Yrotation
                                JOINT RightFinger21
                                {
                                    OFFSET  -5.111610   0.000000   0.000000
                                    CHANNELS 3 Zrotation Xrotation Yrotation
                                    JOINT RightFinger22
                                    {
                                        OFFSET  -2.788160   0.000000   0.000000
                                        CHANNELS 3 Zrotation Xrotation Yrotation
                                        End Site
                                        {
                                            OFFSET  -2.727660   0.000000   0.000000
                                        }
                                    }
                                }
                            }
                            JOINT RightFinger3
                            {
                                OFFSET  -7.899780   0.000000  -1.078090
                                CHANNELS 3 Zrotation Xrotation Yrotation
                                JOINT RightFinger31
                                {
                                    OFFSET  -4.646920   0.000000   0.000000
                                    CHANNELS 3 Zrotation Xrotation Yrotation
                                    JOINT RightFinger32
                                    {
                                        OFFSET  -2.323470   0.000000   0.000000
                                        CHANNELS 3 Zrotation Xrotation Yrotation
                                        End Site
                                        {
                                            OFFSET  -2.273050   0.000000   0.000000
                                        }
                                    }
                                }
                            }
                            JOINT RightFinger4
                            {
                                OFFSET  -7.435090   0.000000  -3.252850
                                CHANNELS 3 Zrotation Xrotation Yrotation
                                JOINT RightFinger41
                                {
                                    OFFSET  -3.717550   0.000000   0.000000
                                    CHANNELS 3 Zrotation Xrotation Yrotation
                                    JOINT RightFinger42
                                    {
                                        OFFSET  -1.858770   0.000000   0.000000
                                        CHANNELS 3 Zrotation Xrotation Yrotation
                                        End Site
                                        {
                                            OFFSET  -1.818440   0.000000   0.000000
                                        }
                                    }
                                }
                            }
                        }
                    }
                }
            }
        }
    }
    JOINT LeftHip
    {
        OFFSET   9.783010   0.000000   0.000000
        CHANNELS 3 Zrotation Xrotation Yrotation
        JOINT LeftKnee
        {
            OFFSET   0.000070 -41.789100   0.000028
            CHANNELS 3 Zrotation Xrotation Yrotation
            JOINT LeftAnkle
            {
                OFFSET   0.000087 -41.133200  -0.000100
                CHANNELS 3 Zrotation Xrotation Yrotation
                JOINT LeftToe
                {
                    OFFSET   0.000000  -6.358960  14.674500
                    CHANNELS 3 Zrotation Xrotation Yrotation
                    End Site
                    {
                        OFFSET   0.000000   0.000000   3.913200
                    }
                }
            }
        }
    }
    JOINT RightHip
    {
        OFFSET  -9.783020   0.000000   0.000000
        CHANNELS 3 Zrotation Xrotation Yrotation
        JOINT RightKnee
        {
            OFFSET   0.000044 -41.789100  -0.000870
            CHANNELS 3 Zrotation Xrotation Yrotation
            JOINT RightAnkle
            {
                OFFSET  -0.000090 -41.133200  -0.000245
                CHANNELS 3 Zrotation Xrotation Yrotation
                JOINT RightToe
                {
                    OFFSET   0.000000  -6.358960  14.674500
                    CHANNELS 3 Zrotation Xrotation Yrotation
                    End Site
                    {
                        OFFSET   0.000000   0.000000   3.913200
                    }
                }
            }
        }
    }
}
MOTION
Frames: 5
Frame Time:   0.016667
 -2.465610  89.240000   2.189140  -0.609292  -6.698730   1.572720   1.186930   5.214550  -1.029250   2.483650  10.405700  -2.180840  -1.720090  -0.336035  -0.001850  -2.826250  -0.679468   7.360000  -7.420880   0.821398   9.915810 -76.472800  13.377600  -2.283560  -0.992119   2.262300 -15.190600  12.288800  -2.989410  -2.333270  39.040900  31.834700 -52.128400 -32.672700  -0.004853   0.001869 -11.344300  -0.002546   0.008325 -36.535500  -0.545794   0.736392 -29.895400  -0.006719  -0.010755 -20.926800  -0.004438  -0.007358 -31.898500  -3.692320   5.919910 -48.133600   0.006895  -0.001317 -32.057000   0.002277   0.003187 -28.612600  -3.349470   6.120170 -41.344700  -0.007611  -0.012379 -27.535600   0.001491   0.000346 -36.571100  -4.170960   5.599020 -55.162700  -0.009391  -0.004766 -36.738400   0.003349  -0.006046   8.788040   2.904850   8.589010  68.196600   0.868407  -0.162983   3.202980  -2.937300  17.272900 -16.921000  -2.585050   1.658510 -44.276400  40.951500  80.411900  27.908600   0.000319   0.000000   8.955360   0.005677   0.002339  30.389100   1.323370   2.255430  24.886600  -0.009058   0.003576  17.420700  -0.005625   0.004325  29.005900  -2.558050  -4.602280  43.663100  -0.003681   0.003200  29.079600  -0.010076   0.003054  28.688500  -2.532830  -4.616170  42.220000  -0.005300   0.005123  28.118500  -0.001009   0.005008  34.847200  -3.013310  -4.318290  52.440900  -0.008538   0.010756  34.925700   0.007627   0.000817   5.522160  10.000800   0.716321   0.031168   1.937410  16.353200  -5.855380  -4.165010  -1.283750   0.000000   0.000000   0.000000  -1.074650  10.770000  -4.045180   1.600960   0.294336 -13.019000  -0.680007  -4.126490  -1.542430  -0.000000   0.000000   0.000000
 -2.424650  89.239700   2.185100  -0.619397  -6.727790   1.528880   1.187230   5.215190  -1.024730   2.483850  10.407000  -2.171800  -1.746740  -0.282880  -0.001966  -2.869960  -0.571959   7.403300  -7.424850   0.831524   9.913490 -76.516600  13.403700  -2.289630  -0.947004   2.350850 -15.259100  12.273400  -3.064420  -2.327440  39.036900  31.827400 -52.124900 -32.677300  -0.004890   0.001883 -11.344500  -0.002558   0.008340 -36.595500  -0.541591   0.728404 -29.944700  -0.006731  -0.010751 -20.961300  -0.004447  -0.007368 -31.905700  -3.692380   5.917980 -48.144200   0.006994  -0.001266 -32.064100   0.002258   0.003238 -28.612800  -3.349470   6.119520 -41.433500  -0.007633  -0.012382 -27.594700   0.001487   0.000355 -36.646900  -4.177200   5.592040 -55.276400  -0.009400  -0.004741 -36.814100   0.003350  -0.006032   8.786350   2.882730   8.572890  68.264500   0.940825  -0.103335   3.131450  -2.890500  17.281000 -16.899500  -2.564140   1.657180 -44.210000  40.898300  80.375000  27.914700   0.000322  -0.000041   8.957940   0.005676   0.002338  30.389100   1.320720   2.250420  24.886400  -0.009056   0.003582  17.420600  -0.005624   0.004321  29.002700  -2.563340  -4.612150  43.659400  -0.003658   0.003181  29.077100  -0.010080   0.003035  28.687600  -2.538220  -4.625990  42.221600  -0.005291   0.005070  28.119600  -0.000997   0.004956  34.845200  -3.020050  -4.327240  52.439300  -0.008523   0.010751  34.924600   0.007629   0.000786   5.498800  10.050900   0.717499   0.022862   1.910160  16.363000  -5.820290  -4.168640  -1.247670   0.000000   0.000000  -0.000000  -1.099620  10.793800  -4.027740   1.600970   0.294860 -13.018400  -0.659501  -4.106090  -1.507170   0.000000   0.000000  -0.000000
 -2.356680  89.239500   2.177930  -0.636540  -6.782680   1.453030   1.188150   5.219630  -1.018160   2.485200  10.416000  -2.158780  -1.793800  -0.194672  -0.002083  -2.947250  -0.393598   7.484080  -7.443270   0.849010   9.899300 -76.590400  13.429800  -2.295700  -0.885451   2.479930 -15.437600  12.224100  -3.251850  -2.299400  39.008600  31.776200 -52.100200 -32.681900  -0.004971   0.001916 -11.344700  -0.002594   0.008380 -36.708300  -0.537387   0.720416 -30.037200  -0.006761  -0.010743 -21.026000  -0.004468  -0.007394 -31.932800  -3.692510   5.910530 -48.184600   0.007203  -0.001154 -32.091000   0.002209   0.003348 -28.613300  -3.349500   6.115020 -41.579400  -0.007679  -0.012388 -27.691900   0.001475   0.000369 -36.781200  -4.185960   5.576760 -55.477700  -0.009419  -0.004688 -36.948100   0.003352  -0.006001   8.778490   2.843940   8.538890  68.372300   1.079550   0.004197   3.015880  -2.794740  17.341400 -16.840500  -2.543250   1.648010 -44.091100  40.806700  80.298200  27.925600   0.000324  -0.000098   8.962820   0.005675   0.002334  30.389600   1.312130   2.235260  24.886200  -0.009052   0.003603  17.420500  -0.005620   0.004313  28.985000  -2.572850  -4.633010  43.633500  -0.003607   0.003139  29.059900  -0.010086   0.002994  28.685900  -2.549190  -4.646070  42.223100  -0.005273   0.004950  28.120600  -0.000971   0.004838  34.836800  -3.032210  -4.346630  52.427800  -0.008488   0.010741  34.916900   0.007635   0.000715   5.460640  10.138500   0.721385   0.008472   1.868710  16.380000  -5.761770  -4.176810  -1.188580   0.000000   0.000000   0.000000  -1.140000  10.833500  -3.997820   1.601000   0.298527 -13.014500  -0.628208  -4.083430  -1.455610  -0.000000   0.000000  -0.000000
 -2.302930  89.240900   2.171710  -0.650673  -6.838520   1.387250   1.189220   5.230090  -1.014430   2.487310  10.437000  -2.151850  -1.836360  -0.125397  -0.002053  -3.017060  -0.253604   7.563460  -7.487410   0.861254   9.854140 -76.657300  13.427600  -2.254960  -0.853741   2.555050 -15.693000  12.127200  -3.530740  -2.254130  38.791000  31.352200 -51.868000 -32.681800  -0.005080   0.001965 -11.344200  -0.002656   0.008446 -36.835900  -0.538416   0.720877 -30.141900  -0.006811  -0.010731 -21.099300  -0.004500  -0.007435 -31.991200  -3.692700   5.894280 -48.271700   0.007490  -0.000996 -32.148900   0.002135   0.003498 -28.614900  -3.343960   6.102390 -41.704200  -0.007742  -0.012396 -27.775000   0.001457   0.000375 -36.913600  -4.189420   5.555290 -55.675300  -0.009444  -0.004613 -37.079700   0.003355  -0.005958   8.760950   2.806770   8.490880  68.464400   1.235620   0.109267   2.920820  -2.684500  17.473900 -16.749500  -2.601520   1.591440 -43.997200  40.722600  80.196100  27.939000   0.000319  -0.000115   8.969440   0.005681   0.002295  30.391100   1.293800   2.204540  24.886300  -0.009041   0.003642  17.420500  -0.005612   0.004300  28.930700  -2.584470  -4.667120  43.553400  -0.003535   0.003079  29.006500  -0.010094   0.002935  28.683100  -2.566080  -4.677280  42.155400  -0.005247   0.004777  28.075500  -0.000939   0.004669  34.787700  -3.047120  -4.379470  52.355800  -0.008435   0.010728  34.869000   0.007643   0.000614   5.431500  10.216600   0.728904  -0.004121   1.842610  16.395100  -5.714540  -4.187590  -1.144730   0.000000   0.000000  -0.000000  -1.170720  10.858900  -3.972510   1.604940   0.338456 -12.995400  -0.605549  -4.081940  -1.431920   0.000000   0.000000   0.000000
 -2.249470  89.244300   2.164140  -0.665472  -6.905320   1.316610   1.191930   5.247530  -1.012780   2.492990  10.471900  -2.149050  -1.883400  -0.055611  -0.001844  -3.094200  -0.112570   7.659710  -7.544650   0.880274   9.820880 -76.737100  13.414500  -2.176280  -0.835497   2.586590 -16.069200  12.018900  -3.888740  -2.155510  38.526100  30.812200 -51.541800 -32.681300  -0.005203   0.002021 -11.340600  -0.002727   0.008526 -36.957400  -0.545618   0.724104 -30.241600  -0.006874  -0.010716 -21.169100  -0.004541  -0.007488 -32.058200  -3.692870   5.875710 -48.371700   0.007777  -0.000828 -32.215500   0.002043   0.003648 -28.617000  -3.335040   6.087320 -41.802600  -0.007806  -0.012406 -27.840500   0.001434   0.000377 -37.039700  -4.191130   5.532670 -55.863400  -0.009469  -0.004534 -37.205000   0.003358  -0.005912   8.738610   2.771380   8.445970  68.515000   1.398870   0.220092   2.850400  -2.545590  17.720100 -16.622800  -2.739670   1.492750 -43.933100  40.644400  80.092900  27.947500   0.000313  -0.000118   8.973760   0.005692   0.002217  30.392800   1.275810   2.174180  24.886600  -0.009030   0.003691  17.420700  -0.005602   0.004284  28.865300  -2.591860  -4.690240  43.457200  -0.003459   0.003014  28.942500  -0.010103   0.002873  28.681200  -2.577400  -4.698240  42.054800  -0.005219   0.004585  28.008500  -0.000911   0.004481  34.713400  -3.056620  -4.401860  52.246400  -0.008372   0.010713  34.796100   0.007653   0.000502   5.403710  10.301300   0.737978  -0.017574   1.823810  16.410500  -5.667930  -4.201310  -1.099660  -0.000000   0.000000   0.000000  -1.197760  10.897300  -3.945300   1.608760   0.375265 -12.968700  -0.592748  -4.080460  -1.411950   0.000000   0.000000   0.000000
